<?xml version="1.0" standalone="no"?>
<!DOCTYPE svg PUBLIC "-//W3C//DTD SVG 20010904//EN"
 "http://www.w3.org/TR/2001/REC-SVG-20010904/DTD/svg10.dtd">
<svg version="1.0" xmlns="http://www.w3.org/2000/svg"
 width="1080.000000pt" height="1080.000000pt" viewBox="0 0 1080.000000 1080.000000"
 preserveAspectRatio="xMidYMid meet">
<metadata>
Created by potrace 1.14, written by Peter Selinger 2001-2017
</metadata>
<g transform="translate(0.000000,1080.000000) scale(0.100000,-0.100000)"
fill="#000000" stroke="none">
<path d="M2671 8010 c-55 -13 -113 -61 -143 -119 l-28 -53 0 -2446 0 -2446 21
-43 c11 -24 37 -57 57 -73 78 -65 -130 -60 2847 -58 l2710 3 41 22 c46 25 91
73 110 118 9 24 13 544 15 2480 l3 2450 -22 41 c-28 56 -93 109 -147 123 -52
13 -5409 14 -5464 1z m4486 -460 l-122 -240 -1649 3 -1649 2 -118 230 c-65
127 -119 233 -119 238 0 4 850 7 1889 7 l1889 0 -121 -240z m-3794 -12 c36
-68 178 -348 317 -623 139 -275 303 -599 365 -720 62 -121 283 -555 490 -965
208 -410 417 -821 465 -915 48 -93 154 -302 235 -463 81 -162 151 -290 155
-285 8 8 151 288 475 928 109 215 244 480 300 590 56 110 209 412 340 670 131
259 281 556 335 660 54 105 218 427 364 718 l268 527 274 0 275 0 -104 -202
c-58 -112 -197 -385 -309 -608 -113 -223 -313 -616 -444 -875 -131 -258 -509
-1005 -841 -1660 l-602 -1190 -334 -3 -333 -2 -198 392 c-110 216 -243 479
-296 583 -54 105 -202 397 -330 650 -360 713 -611 1207 -750 1480 -269 527
-720 1422 -720 1429 0 3 121 6 269 6 l270 0 64 -122z m4707 -2418 l0 -2120
-1075 0 c-591 0 -1075 3 -1075 6 0 3 54 111 121 240 l121 234 724 0 724 0 0
1431 0 1432 228 448 c125 247 228 449 230 449 1 0 2 -954 2 -2120z m-5125
1650 c90 -179 184 -365 209 -414 l46 -88 -2 -1277 -3 -1276 -232 -3 -233 -2 0
1737 0 1738 26 -45 c14 -25 99 -191 189 -370z m3963 296 c-3 -10 -465 -924
-703 -1391 -56 -110 -196 -384 -310 -610 -337 -665 -497 -980 -504 -987 -7 -8
-65 104 -561 1082 -598 1179 -711 1402 -841 1657 -71 138 -129 254 -129 257 0
4 687 6 1526 5 1166 -1 1524 -4 1522 -13z m467 -3343 c-3 -10 -123 -13 -550
-13 -300 0 -545 3 -545 6 0 3 60 123 134 267 74 144 296 582 494 972 198 391
384 757 413 815 l54 105 3 -1070 c1 -588 0 -1076 -3 -1082z m-3668 1542 c102
-203 189 -374 193 -380 11 -15 590 -1162 590 -1169 0 -3 -238 -6 -530 -6
l-530 0 0 1048 0 1047 46 -85 c25 -47 129 -251 231 -455z m1026 -2020 c64
-129 117 -237 117 -240 0 -3 -477 -5 -1060 -5 l-1060 0 0 240 0 240 943 0 942
0 118 -235z"/>
</g>
</svg>
