<?xml version="1.0" standalone="no"?>
<!DOCTYPE svg PUBLIC "-//W3C//DTD SVG 20010904//EN"
 "http://www.w3.org/TR/2001/REC-SVG-20010904/DTD/svg10.dtd">
<svg version="1.0" xmlns="http://www.w3.org/2000/svg"
 width="1080.000000pt" height="1080.000000pt" viewBox="0 0 1080.000000 1080.000000"
 preserveAspectRatio="xMidYMid meet">
<metadata>
Created by potrace 1.14, written by Peter Selinger 2001-2017
</metadata>
<g transform="translate(0.000000,1080.000000) scale(0.100000,-0.100000)"
fill="#000000" stroke="none">
<path d="M0 5400 l0 -5400 5400 0 5400 0 0 5400 0 5400 -5400 0 -5400 0 0
-5400z m6430 3572 c0 -4 -653 -660 -1451 -1457 -797 -798 -1472 -1480 -1499
-1516 -84 -112 -150 -263 -181 -414 -16 -78 -16 -282 0 -364 109 -561 651
-917 1210 -797 41 9 77 18 79 21 2 2 -16 53 -41 112 -215 513 -231 1058 -48
1572 236 659 801 1174 1480 1346 228 58 516 79 744 56 424 -44 829 -212 1142
-472 288 -241 494 -521 628 -855 253 -628 195 -1332 -155 -1912 -127 -211
-157 -242 -1287 -1374 l-1085 -1088 -798 0 c-439 0 -798 3 -798 8 0 4 657 662
1459 1462 1583 1579 1525 1517 1606 1708 165 393 71 840 -240 1131 -305 284
-759 350 -1130 164 -288 -145 -476 -392 -540 -712 -23 -113 -16 -332 14 -444
90 -337 361 -613 698 -710 l83 -23 -333 -330 c-182 -182 -366 -355 -407 -385
-309 -229 -667 -372 -1040 -418 -124 -16 -412 -13 -538 4 -715 100 -1316 534
-1633 1178 -261 534 -289 1162 -74 1713 51 131 109 249 176 356 125 202 173
254 1283 1366 l1081 1082 798 0 c438 0 797 -4 797 -8z"/>
</g>
</svg>
